<svg clip-rule="evenodd" fill-rule="evenodd" height="512" image-rendering="optimizeQuality" shape-rendering="geometricPrecision" text-rendering="geometricPrecision" viewBox="0 0 512 512" width="512" xmlns="http://www.w3.org/2000/svg" xmlns:xodm="http://www.corel.com/coreldraw/odm/2003"><g id="Layer_x0020_1"><g id="_2127450840080"><g><g><g><g id="_194020080"><path d="m228.63 500.53h-98.27c-2.76 0-5-2.24-5-5v-43.5c-4.03-8.4-51.12-53.76-66.73-68.8-5.04-4.86-9.02-8.69-10.96-10.63-.47-.47-.84-1.04-1.1-1.66-6.6-16.3-45.47-82.03-45.86-82.69-.45-.77-.69-1.65-.69-2.55v-138.29c0-14.8 12.03-26.84 26.83-26.84s26.84 12.04 26.84 26.84v105.08c0 2.77-2.24 5-5 5s-5-2.23-5-5v-105.08c0-9.29-7.56-16.84-16.84-16.84s-16.84 7.55-16.84 16.84v136.93c5.38 9.11 38.07 64.7 45.43 81.88 2.06 2.03 5.68 5.52 10.13 9.81 59.72 57.53 69.79 69.75 69.79 75.37v39.13h93.27c2.76 0 5 2.24 5 5s-2.24 5-5 5z"/></g><g id="_194021568"><path d="m92.36 259.72c-2.76 0-5-2.24-5-5v-133.24c0-9.29-7.55-16.84-16.83-16.84-9.29 0-16.84 7.55-16.84 16.84v131.01c0 2.77-2.24 5-5 5s-5-2.23-5-5v-131.01c0-14.8 12.04-26.84 26.84-26.84 14.79 0 26.83 12.04 26.83 26.84v133.24c0 2.76-2.24 5-5 5z"/></g><g id="_194033112"><path d="m136.03 292.48c-2.76 0-5-2.23-5-5v-113.23c0-9.29-7.55-16.84-16.83-16.84-9.29 0-16.84 7.55-16.84 16.84 0 2.76-2.24 5-5 5s-5-2.24-5-5c0-14.8 12.04-26.84 26.84-26.84s26.83 12.04 26.83 26.84v113.23c0 2.77-2.23 5-5 5z"/></g><g id="_194022072"><path d="m179.71 337.56c-2.76 0-5-2.24-5-5v-86.89c0-9.28-7.56-16.84-16.84-16.84s-16.84 7.56-16.84 16.84c0 2.76-2.23 5-5 5-2.76 0-5-2.24-5-5 0-14.8 12.04-26.83 26.84-26.83s26.84 12.03 26.84 26.83v86.89c0 2.76-2.24 5-5 5z"/></g><g id="_194022144"><path d="m228.63 500.53c-2.77 0-5-2.24-5-5v-93.48c0-4.51-4.18-16.87-32.18-48.99-18.85-21.65-41.86-44.82-60.35-63.44-10.07-10.15-18.77-18.92-23.87-24.53-3-3.31-7.14-5.26-11.65-5.48s-8.82 1.32-12.13 4.32c-3.31 3.01-5.26 7.15-5.48 11.66s1.32 8.81 4.33 12.13l70.62 77.82c1.85 2.04 1.7 5.2-.35 7.06-2.04 1.85-5.2 1.7-7.06-.34l-70.62-77.82c-4.8-5.29-7.25-12.16-6.9-19.34.34-7.17 3.45-13.77 8.74-18.57s12.15-7.25 19.33-6.91c7.18.35 13.78 3.46 18.58 8.75 4.94 5.45 13.57 14.14 23.56 24.2 50.29 50.65 95.43 97.91 95.43 119.48v93.48c0 2.76-2.24 5-5 5z"/></g><g id="_194022096"><path d="m73.08 283.73c-1.35 0-2.68-.53-3.67-1.59l-24.39-26.24c-1.87-2.02-1.76-5.19.26-7.07 2.03-1.88 5.19-1.77 7.07.26l24.39 26.24c1.88 2.02 1.76 5.19-.26 7.07-.96.89-2.19 1.33-3.4 1.33z"/></g></g><g><g id="_194023296"><path d="m381.64 500.53h-98.27c-2.76 0-5-2.24-5-5s2.24-5 5-5h93.27v-39.13c0-5.63 10.07-17.84 69.8-75.38 4.44-4.29 8.06-7.77 10.12-9.8 7.36-17.18 40.05-72.77 45.43-81.89v-136.92c0-9.29-7.56-16.84-16.84-16.84s-16.84 7.55-16.84 16.84v105.08c0 2.77-2.24 5-5 5s-5-2.23-5-5v-105.08c0-14.8 12.04-26.84 26.84-26.84s26.83 12.04 26.83 26.84v138.29c0 .9-.24 1.78-.69 2.55-.39.66-39.26 66.39-45.86 82.69-.26.62-.63 1.19-1.1 1.66-1.94 1.94-5.92 5.77-10.96 10.62-15.61 15.04-62.7 60.41-66.73 68.81v43.5c0 2.76-2.24 5-5 5z"/></g><g id="_194023056"><path d="m419.64 259.72c-2.76 0-5-2.24-5-5v-133.24c0-14.8 12.04-26.84 26.83-26.84 14.8 0 26.84 12.04 26.84 26.84v131.01c0 2.77-2.24 5-5 5s-5-2.23-5-5v-131.01c0-9.29-7.55-16.84-16.84-16.84-9.28 0-16.83 7.55-16.83 16.84v133.24c0 2.76-2.24 5-5 5z"/></g><g id="_194022936"><path d="m375.97 292.48c-2.77 0-5-2.23-5-5v-113.23c0-14.8 12.03-26.84 26.83-26.84s26.84 12.04 26.84 26.84c0 2.76-2.24 5-5 5s-5-2.24-5-5c0-9.29-7.55-16.84-16.84-16.84-9.28 0-16.84 7.55-16.84 16.84v113.23c.01 2.77-2.23 5-4.99 5z"/></g><g id="_194023224"><path d="m332.29 337.56c-2.76 0-5-2.24-5-5v-86.89c0-14.8 12.04-26.83 26.84-26.83s26.84 12.03 26.84 26.83c0 2.76-2.24 5-5 5-2.77 0-5-2.24-5-5 0-9.28-7.56-16.84-16.84-16.84s-16.84 7.56-16.84 16.84v86.89c0 2.76-2.24 5-5 5z"/></g><g id="_194023176"><path d="m283.37 500.53c-2.76 0-5-2.24-5-5v-93.48c0-21.57 45.14-68.83 95.43-119.48 9.99-10.06 18.62-18.75 23.56-24.2 4.8-5.29 11.4-8.4 18.58-8.75 7.18-.34 14.04 2.11 19.33 6.91s8.39 11.4 8.74 18.57c.35 7.18-2.1 14.05-6.9 19.34l-70.62 77.82c-1.86 2.04-5.02 2.19-7.07.34-2.04-1.86-2.19-5.02-.34-7.06l70.62-77.82c3.01-3.32 4.54-7.62 4.33-12.13-.22-4.51-2.17-8.65-5.48-11.65-3.31-3.01-7.61-4.54-12.13-4.33-4.51.22-8.65 2.17-11.65 5.48-5.1 5.61-13.8 14.38-23.87 24.53-18.49 18.62-41.5 41.79-60.36 63.44-27.99 32.12-32.17 44.48-32.17 48.99v93.48c0 2.76-2.23 5-5 5z"/></g><g id="_194023392"><path d="m438.93 283.73c-1.22 0-2.44-.44-3.41-1.33-2.02-1.88-2.14-5.05-.26-7.07l24.39-26.24c1.88-2.02 5.04-2.14 7.07-.26 2.02 1.88 2.14 5.05.26 7.07l-24.39 26.24c-.99 1.06-2.32 1.59-3.66 1.59z"/></g></g></g><g id="_194022768"><path d="m260.44 225.25c-1.14 0-2.28-.39-3.21-1.16l3.21-3.84-3.21 3.84c-51.75-43.26-105.27-87.99-105.27-133.58 0-26.6 25.46-48.24 56.74-48.24 26.09 0 39.94 10.58 51.75 28.1 9.01-13.24 18.11-20.8 29.54-24.77 1.66-.57 3.5-.23 4.85.9 1.35 1.12 2 2.88 1.73 4.61-.3 1.86-.45 3.75-.45 5.62 0 19.44 15.82 35.26 35.26 35.26 10.79 0 20.84-4.85 27.58-13.3 1.19-1.49 3.12-2.17 4.98-1.76s3.33 1.84 3.78 3.69c.8 3.23 1.2 6.56 1.2 9.89 0 45.59-53.52 90.32-105.27 133.58-.93.77-2.07 1.16-3.21 1.16zm-51.74-172.98c-25.77 0-46.74 17.16-46.74 38.24 0 40.04 49.51 82.28 98.48 123.23 48.08-40.21 96.68-81.66 98.43-121.04-7.81 5.98-17.4 9.29-27.49 9.29-24.42 0-44.38-19.44-45.23-43.66-7.68 4.52-14.25 11.95-21.42 23.94-.9 1.51-2.53 2.43-4.29 2.43s-3.39-.92-4.29-2.43c-13.42-22.43-25.39-30-47.45-30z"/></g><g id="_194027520"><path d="m331.38 101.98c-24.96 0-45.26-20.3-45.26-45.25 0-24.96 20.3-45.26 45.26-45.26 24.95 0 45.26 20.3 45.26 45.26 0 24.95-20.31 45.25-45.26 45.25zm0-80.51c-19.44 0-35.26 15.82-35.26 35.26s15.82 35.26 35.26 35.26 35.26-15.82 35.26-35.26-15.82-35.26-35.26-35.26z"/></g><g id="_194027592"><path d="m279.74 157.93c-1.78 0-3.43-.95-4.32-2.5l-17.31-29.97-10.8 23.47c-.79 1.7-2.45 2.82-4.32 2.91-1.85.08-3.62-.88-4.56-2.5l-7.92-13.72-4.74 8.21c-.89 1.54-2.54 2.49-4.33 2.49h-24.53c-2.76 0-5-2.23-5-4.99 0-2.77 2.24-5 5-5h21.64l7.63-13.21c.89-1.55 2.54-2.5 4.33-2.5 1.78 0 3.44.95 4.33 2.5l7.42 12.85 10.81-23.47c.78-1.7 2.44-2.82 4.31-2.9 1.85-.09 3.62.87 4.56 2.49l17.8 30.84 7.06-12.22c.89-1.55 2.54-2.5 4.33-2.5h32.84c2.77 0 5 2.23 5 5 0 2.76-2.23 5-5 5h-29.95l-9.95 17.22c-.89 1.55-2.54 2.5-4.33 2.5z"/></g><g><g id="_194023776"><path d="m331.38 77.11c-2.76 0-5-2.24-5-5v-30.76c0-2.77 2.24-5 5-5s5 2.23 5 5v30.76c0 2.76-2.24 5-5 5z"/></g><g id="_194024160"><path d="m346.76 61.73h-30.76c-2.76 0-5-2.24-5-5s2.24-5 5-5h30.76c2.76 0 5 2.24 5 5s-2.24 5-5 5z"/></g></g></g></g></g></svg>